<svg width="20" height="20" viewBox="0 0 20 20" fill="none" xmlns="http://www.w3.org/2000/svg">
<g clip-path="url(#clip0_52_62)">
<path d="M10 0C4.47301 0 0 4.47253 0 10C0 15.527 4.47253 20 10 20C15.527 20 20 15.5275 20 10C20 4.47301 15.5275 0 10 0ZM10 18.6814C5.2131 18.6814 1.31868 14.7869 1.31868 10C1.31868 5.21319 5.21314 1.31868 10 1.31868C14.7869 1.31868 18.6813 5.21314 18.6813 10C18.6813 14.7869 14.7869 18.6814 10 18.6814Z" fill="black"/>
<path d="M14.126 5.87409C13.3529 5.10099 12.1018 5.10095 11.3286 5.87409L10 7.20266L8.67139 5.87409C7.89829 5.10099 6.64717 5.10095 5.87403 5.87409C5.10286 6.6453 5.10286 7.9002 5.87403 8.67145L7.20264 10L5.87403 11.3286C5.10286 12.0999 5.10286 13.3548 5.87403 14.126C6.64699 14.899 7.89829 14.8991 8.67139 14.126L10 12.7974L11.3286 14.126C12.1016 14.899 13.3529 14.8991 14.126 14.126C14.8971 13.3548 14.8971 12.0999 14.126 11.3286L12.7974 10L14.126 8.67141C14.8972 7.9002 14.8972 6.64534 14.126 5.87409ZM13.1935 7.73901L11.3987 9.53383C11.2751 9.65748 11.2056 9.82517 11.2056 10C11.2056 10.1749 11.2751 10.3426 11.3987 10.4662L13.1935 12.261C13.4506 12.5181 13.4506 12.9364 13.1935 13.1935C12.9359 13.4512 12.5188 13.4512 12.2611 13.1935L10.4662 11.3987C10.3375 11.27 10.1688 11.2056 10.0001 11.2056C9.83135 11.2056 9.66256 11.2699 9.53385 11.3987L7.73904 13.1935C7.48141 13.4511 7.06427 13.4512 6.8066 13.1935C6.5495 12.9364 6.5495 12.5181 6.8066 12.261L8.60141 10.4662C8.72506 10.3426 8.79456 10.1749 8.79456 10C8.79456 9.82517 8.72506 9.65748 8.60141 9.53383L6.8066 7.73901C6.5495 7.48192 6.5495 7.06363 6.8066 6.80653C7.06436 6.54882 7.48132 6.54882 7.73908 6.80653L9.5339 8.60134C9.79135 8.85884 10.2088 8.85884 10.4663 8.60134L12.2611 6.80653C12.5189 6.54886 12.9359 6.54882 13.1936 6.80653C13.4506 7.06363 13.4506 7.48192 13.1935 7.73901Z" fill="black"/>
</g>
<defs>
<clipPath id="clip0_52_62">
<rect width="20" height="20" fill="white"/>
</clipPath>
</defs>
</svg>
